<?xml version="1.0" encoding="UTF-8" standalone="no"?>
<!-- Generator: Adobe Illustrator 17.0.0, SVG Export Plug-In . SVG Version: 6.00 Build 0)  -->

<svg
   xmlns:dc="http://purl.org/dc/elements/1.1/"
   xmlns:cc="http://creativecommons.org/ns#"
   xmlns:rdf="http://www.w3.org/1999/02/22-rdf-syntax-ns#"
   xmlns:svg="http://www.w3.org/2000/svg"
   xmlns="http://www.w3.org/2000/svg"
   xmlns:sodipodi="http://sodipodi.sourceforge.net/DTD/sodipodi-0.dtd"
   xmlns:inkscape="http://www.inkscape.org/namespaces/inkscape"
   version="1.1"
   id="Layer_1"
   x="0px"
   y="0px"
   width="131px"
   height="46.787px"
   viewBox="17.53 6.261 131 46.787"
   enable-background="new 17.53 6.261 131 46.787"
   xml:space="preserve"
   sodipodi:docname="logo2.svg"
   inkscape:version="0.92.2 (5c3e80d, 2017-08-06)"><metadata
     id="metadata25"><rdf:RDF><cc:Work
         rdf:about=""><dc:format>image/svg+xml</dc:format><dc:type
           rdf:resource="http://purl.org/dc/dcmitype/StillImage" /><dc:title></dc:title></cc:Work></rdf:RDF></metadata><defs
     id="defs23"><clipPath
       id="clipPath18"
       clipPathUnits="userSpaceOnUse"><path
         id="path16-7"
         d="M 0,545 H 773 V 0 H 0 Z"
         inkscape:connector-curvature="0" /></clipPath><clipPath
       clipPathUnits="userSpaceOnUse"
       id="clipPath18-8"><path
         d="M 0,545 H 773 V 0 H 0 Z"
         id="path16" /></clipPath></defs><sodipodi:namedview
     pagecolor="#ffffff"
     bordercolor="#666666"
     borderopacity="1"
     objecttolerance="10"
     gridtolerance="10"
     guidetolerance="10"
     inkscape:pageopacity="0"
     inkscape:pageshadow="2"
     inkscape:window-width="1440"
     inkscape:window-height="878"
     id="namedview21"
     showgrid="false"
     inkscape:zoom="6.1318573"
     inkscape:cx="54.994082"
     inkscape:cy="6.0799712"
     inkscape:window-x="1912"
     inkscape:window-y="-8"
     inkscape:window-maximized="1"
     inkscape:current-layer="layer1" /><g
     id="g18" /><g
     inkscape:groupmode="layer"
     id="layer1"
     inkscape:label="sd"
     style="display:inline"><g
       id="g10"
       transform="matrix(0.15074708,0,0,-0.15074708,-1.2292966,70.734584)"><g
         id="g12"><g
           id="g14"
           clip-path="url(#clipPath18-8)"><g
             id="g20"
             transform="translate(249.7075,348.458)"><path
               inkscape:connector-curvature="0"
               d="M 0,0 C 0.767,2.802 2.838,4.211 5.756,3.514 8.779,2.793 10.169,0.682 9.567,-2.428 9.031,-5.182 6.206,-6.842 3.152,-6.04 0.635,-5.08 -0.833,-3.05 0,0 m 11.341,-78.673 c 3.052,0.85 5.269,-0.372 6.227,-3.322 0.93,-2.856 -0.315,-5.035 -3.042,-6.021 -2.975,-1.072 -5.117,0.226 -6.276,2.662 -1.038,2.979 0.388,5.927 3.091,6.681 m -48.935,40.907 c -2.39,-1.244 -4.882,-0.994 -6.611,1.656 -1.586,2.431 -1.262,4.918 1.197,6.639 2.544,1.78 5.048,1.416 6.974,-1.099 1.701,-2.229 1.067,-5.444 -1.56,-7.196 m -57.242,-104.27 c 10.041,-16.148 20.905,-31.777 31.375,-47.658 1.569,-2.38 3.516,-4.092 6.551,-3.778 3.284,0.334 4.76,2.732 5.703,5.518 3.224,9.52 6.479,19.033 9.537,28.608 0.838,2.62 2.158,4.312 4.695,5.499 6.676,3.126 39.711,19.636 46.296,22.951 4.252,2.145 5.756,5.31 4.201,8.646 -1.519,3.266 -5.649,4.285 -9.696,2.224 -3.664,-1.868 -33.711,-17.063 -37.323,-19.038 -0.317,0.368 -0.638,0.734 -0.957,1.1 2.977,8.883 5.95,17.76 8.924,26.637 0.229,0.678 0.679,2.031 1.311,3.905 0.649,0.782 1.496,1.32 2.498,1.81 5.778,2.824 11.546,5.679 17.28,8.599 0.454,0.236 0.874,0.492 1.261,0.776 l 0.197,-0.458 c 2.19,0.976 3.74,0.928 5.797,-0.572 5.685,-4.135 11.973,-4.639 18.134,-1.226 7.933,4.391 10.835,12.257 8.165,20.893 -2.112,6.836 -9.645,11.855 -17.148,11.415 -8.299,-0.484 -14.76,-6.203 -16.07,-14.772 -0.376,-2.454 -1.456,-3.523 -3.436,-4.386 -0.787,-0.172 -1.605,-0.447 -2.451,-0.851 -2.488,-1.186 -4.984,-2.39 -8.469,-4.064 8.385,24.989 21.249,63.368 22.781,68.191 0.71,2.227 1.674,3.464 4.205,4.059 8.431,1.989 13.621,8.883 13.443,17.196 -0.16,7.509 -5.762,14.622 -12.746,16.186 -8.824,1.974 -16.429,-1.55 -20.18,-9.807 -2.91,-6.416 -1.904,-12.642 2.67,-17.974 1.657,-1.936 1.831,-3.476 1.035,-5.736 -1.151,-3.247 -6.701,-19.767 -12.807,-38.001 -1.353,2.623 -2.411,4.678 -3.473,6.721 -0.432,0.832 -0.918,1.548 -1.444,2.156 -1.063,1.882 -1.278,3.386 -0.099,5.574 4.109,7.629 2.401,16.082 -3.934,21.467 -5.724,4.872 -14.76,5.402 -20.565,1.218 -7.331,-5.286 -9.752,-13.314 -6.067,-21.599 2.864,-6.436 8.189,-9.82 15.214,-9.939 2.546,-0.045 3.814,-0.938 4.974,-3.038 l 0.432,0.248 c 0.139,-0.46 0.32,-0.92 0.543,-1.378 2.816,-5.783 5.701,-11.535 8.613,-17.274 0.105,-0.208 0.204,-0.415 0.296,-0.62 -5.961,-17.814 -11.356,-33.97 -12.598,-37.681 -1.886,3.653 -16.48,31.67 -17.804,34.21 -2.124,4.081 -5.475,5.523 -8.783,3.799 -3.004,-1.562 -3.97,-5.375 -2.16,-9.089 2.814,-5.787 18.982,-37.005 21.895,-42.741 0.815,-1.608 1.245,-3.074 0.609,-4.942 -4.846,-14.214 -9.585,-28.458 -14.37,-42.69 -0.116,-0.355 -0.381,-0.66 -0.889,-1.5 -4.153,6.195 -8.175,12.125 -12.118,18.104 -7.73,11.729 -16.028,23.095 -21.077,36.417 -12.699,33.531 -3.093,73.588 23.814,97.289 30.738,27.073 61.642,53.953 92.475,80.914 0.596,0.523 1.214,1.019 1.773,1.489 0.844,-0.355 0.943,-1.062 1.074,-1.699 8.597,-41.273 17.783,-82.437 25.599,-123.859 7.565,-40.105 -16.152,-81.282 -54.172,-96.582 -2.239,-0.9 -4.465,-1.836 -6.671,-2.809 -3.504,-1.545 -5.059,-4.987 -3.731,-8.146 1.353,-3.214 4.435,-4.584 8.017,-3.272 24.499,8.971 44.067,24.011 56.867,47.067 12.443,22.409 16.13,46.25 10.889,71.386 C 54.072,-13.835 45.053,29.263 36.011,72.359 34.498,79.584 29.719,81.23 24.201,76.407 -9.668,46.822 -43.712,17.432 -77.306,-12.465 -114.01,-45.121 -121.29,-99.517 -94.836,-142.036"
               style="fill:#5fb963;fill-opacity:1;fill-rule:evenodd;stroke:none"
               id="path22" /></g><g
             id="g24"
             transform="translate(468.1338,236.7783)"><path
               inkscape:connector-curvature="0"
               d="m 0,0 c 0,-9.646 -2.485,-18.315 -7.451,-25.999 -4.97,-7.689 -12.24,-13.708 -21.814,-18.06 -9.574,-4.351 -20.923,-6.527 -34.051,-6.527 -15.739,0 -28.721,2.974 -38.948,8.921 -7.253,4.279 -13.146,9.989 -17.677,17.131 -4.535,7.146 -6.8,14.09 -6.8,20.835 0,3.916 1.36,7.271 4.078,10.062 2.722,2.794 6.184,4.191 10.391,4.191 3.409,0 6.291,-1.088 8.65,-3.264 2.354,-2.176 4.366,-5.404 6.036,-9.684 2.029,-5.077 4.225,-9.318 6.583,-12.726 2.356,-3.413 5.673,-6.223 9.954,-8.433 4.277,-2.214 9.9,-3.317 16.862,-3.317 9.574,0 17.353,2.229 23.334,6.688 5.987,4.462 8.977,10.028 8.977,16.701 0,5.293 -1.614,9.592 -4.842,12.89 -3.227,3.302 -7.398,5.821 -12.51,7.562 -5.114,1.741 -11.951,3.592 -20.507,5.55 -11.461,2.68 -21.05,5.818 -28.776,9.41 -7.722,3.588 -13.853,8.485 -18.384,14.684 -4.535,6.203 -6.8,13.91 -6.8,23.121 0,8.773 2.393,16.571 7.18,23.388 4.786,6.818 11.713,12.059 20.779,15.722 9.066,3.663 19.727,5.495 31.984,5.495 9.792,0 18.258,-1.218 25.404,-3.646 7.142,-2.431 13.07,-5.657 17.786,-9.682 4.712,-4.026 8.16,-8.251 10.335,-12.675 2.176,-4.425 3.264,-8.741 3.264,-12.944 0,-3.848 -1.358,-7.311 -4.081,-10.391 -2.717,-3.084 -6.111,-4.623 -10.17,-4.623 -3.699,0 -6.511,0.924 -8.431,2.771 -1.923,1.852 -4.008,4.879 -6.256,9.085 -2.901,6.021 -6.382,10.716 -10.444,14.09 -4.061,3.37 -10.589,5.058 -19.583,5.058 -8.34,0 -15.066,-1.832 -20.181,-5.493 -5.112,-3.664 -7.668,-8.07 -7.668,-13.219 0,-3.192 0.87,-5.947 2.61,-8.269 1.741,-2.32 4.134,-4.312 7.181,-5.981 3.046,-1.672 6.126,-2.978 9.247,-3.916 3.116,-0.943 8.267,-2.325 15.448,-4.134 8.991,-2.107 17.134,-4.425 24.425,-6.963 7.287,-2.543 13.489,-5.623 18.6,-9.249 5.116,-3.627 9.103,-8.215 11.968,-13.762 C -1.434,14.849 0,8.05 0,0"
               style="fill:#414142;fill-opacity:1;fill-rule:nonzero;stroke:none"
               id="path26" /></g><g
             id="g28"
             transform="translate(528.0771,322.833)"><path
               inkscape:connector-curvature="0"
               d="m 0,0 v -108.248 h 24.478 c 5.367,0 9.574,0.144 12.62,0.435 3.046,0.29 6.201,1.015 9.465,2.175 3.263,1.161 6.092,2.791 8.485,4.898 10.805,9.138 16.21,24.873 16.21,47.216 0,15.734 -2.376,27.521 -7.126,35.354 C 59.381,-10.337 53.525,-5.352 46.563,-3.21 39.6,-1.072 31.185,0 21.323,0 Z m -12.511,25.564 h 42.102 c 10.95,0 20.344,-1.015 28.178,-3.045 7.832,-2.032 14.94,-5.839 21.322,-11.422 16.609,-14.215 24.913,-35.832 24.913,-64.839 0,-9.573 -0.834,-18.316 -2.502,-26.221 -1.668,-7.905 -4.243,-15.032 -7.724,-21.376 -3.481,-6.349 -7.942,-12.02 -13.382,-17.025 -4.279,-3.848 -8.958,-6.928 -14.034,-9.249 -5.078,-2.321 -10.535,-3.954 -16.374,-4.894 -5.838,-0.943 -12.421,-1.416 -19.744,-1.416 h -42.102 c -5.874,0 -10.299,0.89 -13.273,2.664 -2.973,1.78 -4.914,4.28 -5.821,7.509 -0.906,3.226 -1.359,7.413 -1.359,12.566 V 5.765 c 0,6.962 1.558,12.003 4.678,15.123 3.117,3.117 8.159,4.676 15.122,4.676"
               style="fill:#414142;fill-opacity:1;fill-rule:nonzero;stroke:none"
               id="path30" /></g><g
             id="g32"
             transform="translate(254.3354,142.7715)"><path
               inkscape:connector-curvature="0"
               d="m 0,0 c -0.694,2.778 -1.706,5 -3.035,6.663 -1.332,1.662 -3.088,3.002 -5.276,4.02 -2.186,1.016 -4.48,1.524 -6.893,1.524 -3.974,0 -7.39,-1.276 -10.245,-3.832 C -27.537,6.514 -29.114,3.722 -30.183,0 Z m 0,-10.904 4.394,-2.308 C 2.951,-16.04 1.29,-18.323 -0.6,-20.06 c -1.885,-1.737 -4.011,-3.057 -6.371,-3.961 -2.358,-0.908 -5.026,-1.36 -8.008,-1.36 -6.607,0 -11.772,2.164 -15.498,6.493 -3.725,4.329 -5.587,9.225 -5.587,14.683 0,5.137 1.579,9.713 4.732,13.732 3.997,5.112 9.349,7.669 16.056,7.669 6.901,0 12.417,-2.618 16.54,-7.853 C 4.191,5.646 5.684,1.03 5.733,-4.503 h -36.439 c 0.1,-4.704 1.603,-8.56 4.513,-11.565 2.904,-3.009 6.493,-4.513 10.767,-4.513 2.062,0 4.066,0.357 6.017,1.075 1.95,0.717 3.607,1.668 4.973,2.856 1.367,1.186 2.848,3.102 4.436,5.746"
               style="fill:#414142;fill-opacity:1;fill-rule:nonzero;stroke:none"
               id="path34" /></g><path
             inkscape:connector-curvature="0"
             d="m 268.998,174.558 h 5.21 v -56.125 h -5.21 z"
             style="fill:#414142;fill-opacity:1;fill-rule:nonzero;stroke:none"
             id="path36" /><g
             id="g38"
             transform="translate(319.1318,142.7715)"><path
               inkscape:connector-curvature="0"
               d="m 0,0 c -0.694,2.778 -1.706,5 -3.034,6.663 -1.332,1.662 -3.088,3.002 -5.276,4.02 -2.187,1.016 -4.481,1.524 -6.893,1.524 -3.975,0 -7.39,-1.276 -10.246,-3.832 C -27.537,6.514 -29.113,3.722 -30.182,0 Z m 0,-10.904 4.395,-2.308 c -1.444,-2.828 -3.104,-5.111 -4.994,-6.848 -1.885,-1.737 -4.011,-3.057 -6.371,-3.961 -2.359,-0.908 -5.027,-1.36 -8.009,-1.36 -6.606,0 -11.771,2.164 -15.497,6.493 -3.726,4.329 -5.588,9.225 -5.588,14.683 0,5.137 1.58,9.713 4.733,13.732 3.997,5.112 9.348,7.669 16.055,7.669 6.901,0 12.418,-2.618 16.54,-7.853 C 4.191,5.646 5.685,1.03 5.734,-4.503 h -36.439 c 0.099,-4.704 1.604,-8.56 4.512,-11.565 2.905,-3.009 6.493,-4.513 10.768,-4.513 2.062,0 4.066,0.357 6.016,1.075 1.951,0.717 3.607,1.668 4.973,2.856 1.368,1.186 2.848,3.102 4.436,5.746"
               style="fill:#414142;fill-opacity:1;fill-rule:nonzero;stroke:none"
               id="path40" /></g><g
             id="g42"
             transform="translate(373.8789,150.5127)"><path
               inkscape:connector-curvature="0"
               d="m 0,0 -4.13,-2.567 c -3.569,4.739 -8.44,7.109 -14.609,7.109 -4.932,0 -9.028,-1.588 -12.287,-4.76 -3.26,-3.172 -4.89,-7.025 -4.89,-11.562 0,-2.947 0.752,-5.724 2.252,-8.325 1.496,-2.604 3.554,-4.623 6.169,-6.06 2.614,-1.438 5.546,-2.157 8.791,-2.157 5.951,0 10.807,2.369 14.574,7.11 L 0,-23.931 c -1.936,-2.914 -4.535,-5.175 -7.795,-6.783 -3.264,-1.606 -6.981,-2.408 -11.15,-2.408 -6.402,0 -11.711,2.034 -15.929,6.103 -4.218,4.07 -6.325,9.019 -6.325,14.85 0,3.92 0.984,7.562 2.958,10.925 1.973,3.358 4.683,5.985 8.131,7.871 3.451,1.886 7.309,2.828 11.578,2.828 2.679,0 5.263,-0.41 7.76,-1.229 C -8.279,7.407 -6.165,6.341 -4.428,5.025 -2.691,3.71 -1.214,2.034 0,0"
               style="fill:#414142;fill-opacity:1;fill-rule:nonzero;stroke:none"
               id="path44" /></g><g
             id="g46"
             transform="translate(388.4336,173.9619)"><path
               inkscape:connector-curvature="0"
               d="m 0,0 h 5.211 v -15.036 h 8.261 V -19.54 H 5.211 V -55.529 H 0 v 35.989 h -7.111 v 4.504 H 0 Z"
               style="fill:#414142;fill-opacity:1;fill-rule:nonzero;stroke:none"
               id="path48" /></g><g
             id="g50"
             transform="translate(407.7451,158.9258)"><path
               inkscape:connector-curvature="0"
               d="m 0,0 h 5.325 v -5.919 c 1.588,2.333 3.26,4.075 5.024,5.228 1.759,1.157 3.595,1.733 5.507,1.733 1.44,0 2.978,-0.46 4.616,-1.378 l -2.718,-4.392 c -1.092,0.472 -2.008,0.708 -2.752,0.708 -1.737,0 -3.413,-0.713 -5.027,-2.141 C 8.363,-7.589 7.135,-9.803 6.291,-12.803 5.646,-15.112 5.325,-19.777 5.325,-26.797 V -40.493 H 0 Z"
               style="fill:#414142;fill-opacity:1;fill-rule:nonzero;stroke:none"
               id="path52" /></g><g
             id="g54"
             transform="translate(454.3799,177.9053)"><path
               inkscape:connector-curvature="0"
               d="M 0,0 H 8.001 L -2.978,-11.464 h -5.133 z m -2.584,-23.037 c -4.333,0 -8.058,-1.6 -11.169,-4.802 -3.111,-3.199 -4.669,-7.07 -4.669,-11.612 0,-2.928 0.71,-5.657 2.13,-8.189 1.417,-2.53 3.337,-4.484 5.753,-5.859 2.412,-1.378 5.065,-2.066 7.955,-2.066 2.886,0 5.539,0.688 7.955,2.066 2.412,1.375 4.333,3.329 5.753,5.859 1.416,2.532 2.126,5.261 2.126,8.189 0,4.542 -1.562,8.413 -4.687,11.612 -3.124,3.202 -6.841,4.802 -11.147,4.802 m 0.016,5.1 c 6.241,0 11.409,-2.26 15.512,-6.776 3.726,-4.119 5.593,-8.993 5.593,-14.626 0,-5.657 -1.97,-10.602 -5.909,-14.832 -3.94,-4.228 -9.005,-6.344 -15.196,-6.344 -6.211,0 -11.288,2.116 -15.228,6.344 -3.943,4.23 -5.912,9.175 -5.912,14.832 0,5.608 1.866,10.471 5.596,14.59 4.099,4.54 9.283,6.812 15.544,6.812"
               style="fill:#414142;fill-opacity:1;fill-rule:nonzero;stroke:none"
               id="path56" /></g><g
             id="g58"
             transform="translate(482.5547,158.9258)"><path
               inkscape:connector-curvature="0"
               d="m 0,0 h 5.211 v -7.259 c 2.084,2.78 4.393,4.858 6.924,6.236 2.531,1.375 5.283,2.065 8.261,2.065 3.027,0 5.714,-0.771 8.058,-2.31 2.344,-1.538 4.077,-3.609 5.192,-6.213 1.118,-2.606 1.675,-6.662 1.675,-12.17 V -40.493 H 30.11 v 19.315 c 0,4.664 -0.194,7.78 -0.58,9.341 -0.602,2.68 -1.759,4.694 -3.473,6.05 -1.71,1.351 -3.948,2.027 -6.7,2.027 -3.153,0 -5.973,-1.042 -8.47,-3.127 C 8.395,-8.971 6.749,-11.551 5.955,-14.628 5.459,-16.638 5.211,-20.31 5.211,-25.645 V -40.493 H 0 Z"
               style="fill:#414142;fill-opacity:1;fill-rule:nonzero;stroke:none"
               id="path60" /></g><path
             inkscape:connector-curvature="0"
             d="m 528.259,158.926 h 5.21 v -40.493 h -5.21 z m 2.588,16.674 c 1.187,0 2.198,-0.424 3.038,-1.268 0.84,-0.844 1.26,-1.859 1.26,-3.05 0,-1.168 -0.42,-2.172 -1.26,-3.015 -0.84,-0.844 -1.851,-1.266 -3.038,-1.266 -1.16,0 -2.16,0.422 -3,1.266 -0.84,0.843 -1.26,1.847 -1.26,3.015 0,1.191 0.42,2.206 1.26,3.05 0.84,0.844 1.84,1.268 3,1.268"
             style="fill:#414142;fill-opacity:1;fill-rule:nonzero;stroke:none"
             id="path62" /><g
             id="g64"
             transform="translate(583.6006,150.5127)"><path
               inkscape:connector-curvature="0"
               d="m 0,0 -4.13,-2.567 c -3.569,4.739 -8.44,7.109 -14.608,7.109 -4.933,0 -9.029,-1.588 -12.288,-4.76 -3.26,-3.172 -4.89,-7.025 -4.89,-11.562 0,-2.947 0.752,-5.724 2.252,-8.325 1.496,-2.604 3.554,-4.623 6.169,-6.06 2.614,-1.438 5.546,-2.157 8.791,-2.157 5.951,0 10.807,2.369 14.574,7.11 L 0,-23.931 c -1.936,-2.914 -4.535,-5.175 -7.795,-6.783 -3.264,-1.606 -6.981,-2.408 -11.149,-2.408 -6.403,0 -11.712,2.034 -15.93,6.103 -4.218,4.07 -6.325,9.019 -6.325,14.85 0,3.92 0.985,7.562 2.958,10.925 1.973,3.358 4.683,5.985 8.131,7.871 3.451,1.886 7.31,2.828 11.578,2.828 2.679,0 5.263,-0.41 7.76,-1.229 C -8.279,7.407 -6.165,6.341 -4.428,5.025 -2.691,3.71 -1.214,2.034 0,0"
               style="fill:#414142;fill-opacity:1;fill-rule:nonzero;stroke:none"
               id="path66" /></g><g
             id="g68"
             transform="translate(613.1348,154.9424)"><path
               inkscape:connector-curvature="0"
               d="m 0,0 c -2.897,0 -5.577,-0.712 -8.028,-2.138 -2.454,-1.425 -4.409,-3.425 -5.856,-6.004 -1.45,-2.579 -2.176,-5.304 -2.176,-8.178 0,-2.852 0.73,-5.577 2.192,-8.179 1.462,-2.602 3.428,-4.628 5.893,-6.079 2.466,-1.45 5.112,-2.174 7.937,-2.174 2.851,0 5.554,0.72 8.103,2.157 2.554,1.438 4.52,3.382 5.894,5.834 1.375,2.455 2.062,5.219 2.062,8.291 0,4.685 -1.542,8.601 -4.626,11.748 C 8.31,-1.574 4.512,0 0,0 M 20.822,3.983 V -36.51 h -5.134 v 6.959 c -2.183,-2.655 -4.633,-4.653 -7.351,-5.993 -2.718,-1.34 -5.689,-2.008 -8.913,-2.008 -5.735,0 -10.628,2.076 -14.682,6.234 -4.057,4.155 -6.088,9.211 -6.088,15.166 0,5.831 2.05,10.817 6.142,14.962 4.096,4.143 9.019,6.215 14.776,6.215 3.324,0 6.333,-0.708 9.024,-2.122 2.695,-1.414 5.058,-3.535 7.092,-6.363 v 7.443 z"
               style="fill:#414142;fill-opacity:1;fill-rule:nonzero;stroke:none"
               id="path70" /></g></g></g></g></g></svg>