<?xml version="1.0" encoding="UTF-8" standalone="no"?>
<!-- Generator: Adobe Illustrator 17.0.0, SVG Export Plug-In . SVG Version: 6.00 Build 0)  -->

<svg
   xmlns:dc="http://purl.org/dc/elements/1.1/"
   xmlns:cc="http://creativecommons.org/ns#"
   xmlns:rdf="http://www.w3.org/1999/02/22-rdf-syntax-ns#"
   xmlns:svg="http://www.w3.org/2000/svg"
   xmlns="http://www.w3.org/2000/svg"
   xmlns:sodipodi="http://sodipodi.sourceforge.net/DTD/sodipodi-0.dtd"
   xmlns:inkscape="http://www.inkscape.org/namespaces/inkscape"
   version="1.1"
   id="Layer_1"
   x="0px"
   y="0px"
   width="32"
   height="32"
   viewBox="17.53 6.261 32 32.000001"
   enable-background="new 17.53 6.261 131 46.787"
   xml:space="preserve"
   sodipodi:docname="logo_simple32x32.svg"
   inkscape:version="0.92.2 (5c3e80d, 2017-08-06)"><metadata
     id="metadata25"><rdf:RDF><cc:Work
         rdf:about=""><dc:format>image/svg+xml</dc:format><dc:type
           rdf:resource="http://purl.org/dc/dcmitype/StillImage" /><dc:title></dc:title></cc:Work></rdf:RDF></metadata><defs
     id="defs23"><clipPath
       id="clipPath18"
       clipPathUnits="userSpaceOnUse"><path
         id="path16-7"
         d="M 0,545 H 773 V 0 H 0 Z"
         inkscape:connector-curvature="0" /></clipPath><clipPath
       clipPathUnits="userSpaceOnUse"
       id="clipPath18-8"><path
         d="M 0,545 H 773 V 0 H 0 Z"
         id="path16"
         inkscape:connector-curvature="0" /></clipPath><clipPath
       clipPathUnits="userSpaceOnUse"
       id="clipPath18-83"><path
         inkscape:connector-curvature="0"
         d="M 0,545 H 773 V 0 H 0 Z"
         id="path16-7-6" /></clipPath><clipPath
       id="clipPath18-8-4"
       clipPathUnits="userSpaceOnUse"><path
         inkscape:connector-curvature="0"
         id="path16-75"
         d="M 0,545 H 773 V 0 H 0 Z" /></clipPath><clipPath
       clipPathUnits="userSpaceOnUse"
       id="clipPath18-2"><path
         inkscape:connector-curvature="0"
         d="M 0,545 H 773 V 0 H 0 Z"
         id="path16-7-3" /></clipPath><clipPath
       id="clipPath18-8-9"
       clipPathUnits="userSpaceOnUse"><path
         id="path16-8"
         d="M 0,545 H 773 V 0 H 0 Z"
         inkscape:connector-curvature="0" /></clipPath></defs><sodipodi:namedview
     pagecolor="#ffffff"
     bordercolor="#666666"
     borderopacity="1"
     objecttolerance="10"
     gridtolerance="10"
     guidetolerance="10"
     inkscape:pageopacity="0"
     inkscape:pageshadow="2"
     inkscape:window-width="1920"
     inkscape:window-height="1018"
     id="namedview21"
     showgrid="false"
     inkscape:zoom="12.263715"
     inkscape:cx="6.9688697"
     inkscape:cy="30.364394"
     inkscape:window-x="-8"
     inkscape:window-y="-8"
     inkscape:window-maximized="1"
     inkscape:current-layer="g10"
     inkscape:pagecheckerboard="false"
     borderlayer="false"
     fit-margin-top="0"
     fit-margin-left="0"
     fit-margin-right="0"
     fit-margin-bottom="0" /><g
     id="g18"
     transform="translate(-2.2009704,-9.1154979)" /><g
     inkscape:groupmode="layer"
     id="layer1"
     inkscape:label="sd"
     style="display:inline"
     transform="translate(-2.2009704,-9.1154979)" /><g
     transform="translate(-2.2009704,-9.1154979)"
     style="display:inline"
     inkscape:label="sd copy"
     id="g76"
     inkscape:groupmode="layer"><g
       transform="matrix(0.15074708,0,0,-0.15074708,-32.987919,67.580499)"
       id="g10"><path
         inkscape:connector-curvature="0"
         d="m 473.50876,284.57116 c 0.59714,2.18145 2.20948,3.27841 4.48125,2.73577 2.35351,-0.56133 3.43567,-2.20481 2.967,-4.62606 -0.4173,-2.14408 -2.61666,-3.43645 -4.99431,-2.81206 -1.95957,0.74739 -3.10246,2.32781 -2.45394,4.70235 m 8.82937,-61.24968 c 2.37608,0.66176 4.1021,-0.28961 4.84793,-2.58629 0.72404,-2.22349 -0.24524,-3.91992 -2.3683,-4.68756 -2.31614,-0.83459 -3.98376,0.17595 -4.88608,2.07246 -0.80812,2.31926 0.30207,4.61438 2.40645,5.20139 m -38.09761,31.84753 c -1.86069,-0.9685 -3.8008,-0.77387 -5.14689,1.28925 -1.23476,1.89262 -0.98251,3.82884 0.93191,5.1687 1.98059,1.38579 3.93004,1.1024 5.4295,-0.85561 1.32429,-1.73536 0.83069,-4.23835 -1.21452,-5.60234 m -44.56489,-81.17783 c 7.81727,-12.57178 16.27527,-24.7395 24.42653,-37.10341 1.22152,-1.85292 2.73733,-3.18577 5.10018,-2.94131 2.55671,0.26003 3.70583,2.12696 4.43999,4.29596 2.51,7.41165 5.04413,14.81785 7.42489,22.27232 0.65241,2.03976 1.68007,3.35704 3.65522,4.28116 5.1975,2.4337 30.91639,15.28731 36.04305,17.86816 3.31033,1.66996 4.48124,4.13402 3.27062,6.73121 -1.18259,2.54269 -4.39794,3.33602 -7.54867,1.73146 -2.85255,-1.4543 -26.24519,-13.28414 -29.05726,-14.82174 -0.24679,0.2865 -0.4967,0.57144 -0.74506,0.85638 2.3177,6.91573 4.63229,13.82678 6.94765,20.73784 0.17828,0.52784 0.52862,1.5812 1.02066,3.04017 0.50527,0.60882 1.16469,1.02767 1.94478,1.40915 4.49837,2.19859 8.98896,4.4213 13.45308,6.69462 0.35345,0.18374 0.68044,0.38304 0.98173,0.60415 l 0.15337,-0.35657 c 1.70499,0.75985 2.91172,0.72248 4.51317,-0.44532 4.42597,-3.21925 9.3214,-3.61163 14.11795,-0.95449 6.17612,3.41855 8.43543,9.5425 6.35674,16.26593 -1.64427,5.32207 -7.50897,9.22953 -13.35032,8.88698 -6.46106,-0.37681 -11.49117,-4.82926 -12.51105,-11.50052 -0.29273,-1.91052 -1.13355,-2.74278 -2.67505,-3.41465 -0.61271,-0.13391 -1.24955,-0.34801 -1.90819,-0.66254 -1.93699,-0.92334 -3.88022,-1.8607 -6.59341,-3.16396 6.52802,19.4548 16.54309,49.33419 17.7358,53.08907 0.55276,1.73379 1.30327,2.69684 3.27374,3.16007 6.56383,1.54851 10.60443,6.91573 10.46585,13.38769 -0.12457,5.84601 -4.48592,11.38373 -9.92321,12.60136 -6.86979,1.53683 -12.79055,-1.20673 -15.71083,-7.63509 -2.26554,-4.99508 -1.48233,-9.84224 2.07869,-13.99339 1.29003,-1.50724 1.42549,-2.70618 0.80578,-4.46567 -0.89609,-2.5279 -5.21696,-15.3893 -9.9707,-29.58511 -1.05335,2.0421 -1.87704,3.64199 -2.70385,5.23254 -0.33632,0.64774 -0.71469,1.20517 -1.1242,1.67852 -0.82758,1.4652 -0.99497,2.63612 -0.0771,4.33955 3.199,5.93944 1.86927,12.5204 -3.06275,16.71281 -4.45634,3.79302 -11.49118,4.20564 -16.01057,0.94826 -5.70744,-4.11534 -7.59227,-10.36542 -4.72337,-16.81558 2.22972,-5.01065 6.37542,-7.64521 11.84463,-7.73786 1.98215,-0.035 2.96933,-0.73026 3.87243,-2.36519 l 0.33633,0.19308 c 0.10821,-0.35813 0.24913,-0.71625 0.42274,-1.07282 2.19235,-4.50227 4.43843,-8.9804 6.70552,-13.44841 0.0817,-0.16194 0.15882,-0.32309 0.23045,-0.48269 -4.64085,-13.86882 -8.84105,-26.44683 -9.80799,-29.33597 -1.46831,2.84398 -12.83025,24.65619 -13.86103,26.63367 -1.65361,3.1772 -4.26248,4.29985 -6.83787,2.95766 -2.33872,-1.21607 -3.09078,-4.18463 -1.68164,-7.07611 2.1908,-4.50538 14.77815,-28.80968 17.04602,-33.27535 0.63451,-1.25189 0.96928,-2.39322 0.47413,-3.84752 -3.77278,-11.0661 -7.46225,-22.15555 -11.18754,-33.23566 -0.0903,-0.27638 -0.29663,-0.51383 -0.69212,-1.1678 -3.23326,4.82302 -6.36452,9.43974 -9.43429,14.0946 -6.01807,9.13143 -12.47835,17.98026 -16.40918,28.3519 -9.88661,26.10505 -2.408,57.29082 18.54003,75.74288 23.93061,21.07727 47.99045,42.00429 71.99501,62.99437 0.46401,0.40717 0.94514,0.79332 1.38035,1.15923 0.65708,-0.27638 0.73415,-0.8268 0.83614,-1.32273 6.69307,-32.13247 13.84469,-64.18007 19.92972,-96.42854 5.88961,-31.22314 -12.5749,-63.28087 -42.17479,-75.19246 -1.74314,-0.70068 -3.47616,-1.42939 -5.19361,-2.1869 -2.72799,-1.20284 -3.93861,-3.88256 -2.90471,-6.34195 1.05335,-2.50221 3.4528,-3.5688 6.24151,-2.54736 19.07333,6.98423 34.3077,18.6934 44.27294,36.6433 9.68731,17.44618 12.55777,36.00723 8.47747,55.57649 -7.00448,33.56108 -14.02609,67.11437 -21.0656,100.66611 -1.17792,5.62491 -4.89854,6.90638 -9.1945,3.15151 -26.36819,-23.03296 -52.87263,-45.91409 -79.02673,-69.18995 -28.57535,-25.42384 -34.24308,-67.77302 -13.64772,-100.87554"
         style="fill:#5fb963;fill-opacity:1;fill-rule:evenodd;stroke:none;stroke-width:0.77853483"
         id="path22" /><path
         style="fill:#225500;fill-opacity:1;stroke-width:0.08154136"
         d="M 11.555938,31.896086 C 11.430278,31.846007 8.0775966,26.828453 7.4276356,25.717753 6.4299771,24.012883 5.9149267,22.374373 5.7559935,20.399826 5.4980865,17.195651 6.6907263,13.800146 8.8823799,11.498846 9.4523704,10.90034 21.340263,0.47084356 21.783504,0.1804209 c 0.267616,-0.17534839 0.680722,-0.11092525 0.860643,0.13421541 0.104052,0.14177081 0.632357,2.51332599 1.734732,7.78720009 0.871811,4.1708406 1.65072,7.9135896 1.730908,8.3172186 0.200635,1.009911 0.202288,3.223071 0.0032,4.221389 -0.698284,3.500671 -2.846596,6.519197 -5.841233,8.207333 -0.910548,0.513292 -2.198725,1.066374 -2.483683,1.066374 -0.528117,0 -0.823078,-0.75996 -0.434865,-1.120422 0.100908,-0.0937 0.576701,-0.341997 1.057319,-0.551783 1.582823,-0.690891 2.452733,-1.292053 3.613047,-2.496842 1.988303,-2.064516 2.961935,-4.575806 2.872803,-7.409827 -0.03412,-1.084798 -0.09535,-1.468276 -0.742118,-4.647857 C 23.006601,8.0456517 21.7645,2.2675024 21.681485,2.1844862 21.591128,2.0941294 10.675809,11.61128 9.8020013,12.542299 c -1.7400931,1.854024 -2.6918634,4.363558 -2.6918634,7.09764 0,1.83058 0.322421,3.141728 1.1886835,4.833863 0.5222211,1.020093 3.3140956,5.242075 3.4029116,5.146015 0.111257,-0.12033 1.7986,-5.166083 1.7986,-5.37845 0,-0.108333 -0.623792,-1.420365 -1.386203,-2.915626 -0.7849,-1.539365 -1.386204,-2.814587 -1.386204,-2.939808 0,-0.558153 0.737026,-0.82014 1.117425,-0.397206 0.110928,0.123331 0.657948,1.103893 1.2156,2.179025 0.557653,1.075133 1.045576,1.986449 1.084275,2.025148 0.03945,0.03945 0.395054,-0.903 0.809535,-2.145525 L 15.693936,17.83149 15.147538,16.719402 C 14.84702,16.107753 14.538351,15.536881 14.461607,15.4508 c -0.08806,-0.09877 -0.358804,-0.197495 -0.733872,-0.267596 -0.734244,-0.137233 -1.147624,-0.411899 -1.461984,-0.971403 -0.589875,-1.04987 -0.248609,-2.183119 0.828365,-2.750774 0.387945,-0.204478 0.511929,-0.230603 0.938634,-0.197786 0.823996,0.06337 1.412644,0.46873 1.744143,1.201058 0.211172,0.46651 0.213301,0.943521 0.0066,1.487255 -0.08967,0.235932 -0.16306,0.49491 -0.163083,0.575505 -4.1e-5,0.149498 0.648362,1.393086 0.699624,1.341825 0.05748,-0.05748 1.583494,-4.57039 1.583494,-4.682887 0,-0.06426 -0.14941,-0.362506 -0.332024,-0.662771 -0.318057,-0.522973 -0.33088,-0.5702832 -0.304823,-1.1246691 0.02221,-0.4726276 0.07227,-0.6516272 0.273023,-0.9763404 0.80501,-1.3020737 2.73507,-1.2267538 3.424433,0.1336374 0.251973,0.4972465 0.272444,1.2563575 0.04725,1.7521501 -0.190191,0.418726 -0.721245,0.87676 -1.170631,1.009667 -0.190943,0.05647 -0.40972,0.158281 -0.486173,0.226241 -0.137708,0.122412 -2.888983,8.234563 -2.817153,8.306393 0.03128,0.03128 0.641268,-0.22125 1.340337,-0.55488 0.09795,-0.04675 0.213236,-0.180996 0.25619,-0.298333 0.04295,-0.117335 0.141616,-0.391489 0.219249,-0.609231 0.295365,-0.82843 1.047075,-1.323979 1.909631,-1.258883 1.0389,0.07841 1.755671,0.750921 1.858102,1.743377 0.08954,0.867565 -0.288792,1.566524 -1.065931,1.96928 -0.623396,0.323077 -1.248247,0.309311 -1.856742,-0.04091 -0.252122,-0.145108 -0.532656,-0.263833 -0.623409,-0.263833 -0.09075,0 -0.751853,0.290738 -1.469112,0.646086 l -1.304105,0.646086 -0.611802,1.833469 c -0.403808,1.210145 -0.584353,1.860916 -0.531063,1.914206 0.05329,0.05329 0.863761,-0.318417 2.383957,-1.093352 2.475511,-1.261915 2.673606,-1.325687 3.025351,-0.973941 0.270993,0.270992 0.26173,0.608319 -0.02409,0.877405 -0.123331,0.11611 -1.490168,0.842207 -3.037416,1.61355 -1.547247,0.771342 -2.894399,1.47726 -2.99367,1.568706 -0.120931,0.111397 -0.373568,0.747758 -0.765569,1.92837 -0.633129,1.906831 -0.809937,2.326024 -1.014126,2.404379 -0.155546,0.05969 -0.520864,0.05657 -0.677308,-0.0058 z M 20.542664,19.55248 c 0.269212,-0.211762 0.29457,-0.648235 0.05177,-0.891037 -0.40332,-0.403321 -1.132547,-0.0273 -1.025394,0.528732 0.09532,0.494635 0.577358,0.67401 0.973627,0.362305 z m -6.182441,-5.902125 c 0.248862,-0.248861 0.258039,-0.583904 0.02285,-0.83425 -0.347606,-0.37001 -1.045824,-0.108507 -1.045824,0.391691 0,0.303287 0.322971,0.642707 0.61156,0.642707 0.116197,0 0.301332,-0.09007 0.411414,-0.200148 z m 5.261984,-3.7891071 c 0.281788,-0.2817874 0.299412,-0.4774442 0.06935,-0.7699184 -0.200265,-0.2545958 -0.666482,-0.2957571 -0.905001,-0.0799 -0.195779,0.1771772 -0.199623,0.6927322 -0.0064,0.8610385 0.329179,0.286762 0.546992,0.283859 0.842071,-0.01122 z"
         id="path3968"
         inkscape:connector-curvature="0"
         transform="matrix(6.6336277,0,0,-6.6336277,349.71748,346.30191)" /></g></g></svg>