<?xml version="1.0" encoding="UTF-8" standalone="no"?>
<!-- Generator: Adobe Illustrator 17.0.0, SVG Export Plug-In . SVG Version: 6.00 Build 0)  -->

<svg
   xmlns:dc="http://purl.org/dc/elements/1.1/"
   xmlns:cc="http://creativecommons.org/ns#"
   xmlns:rdf="http://www.w3.org/1999/02/22-rdf-syntax-ns#"
   xmlns:svg="http://www.w3.org/2000/svg"
   xmlns="http://www.w3.org/2000/svg"
   xmlns:sodipodi="http://sodipodi.sourceforge.net/DTD/sodipodi-0.dtd"
   xmlns:inkscape="http://www.inkscape.org/namespaces/inkscape"
   version="1.1"
   id="Layer_1"
   x="0px"
   y="0px"
   width="26.53838"
   height="41.102848"
   viewBox="17.53 6.261 26.53838 41.102849"
   enable-background="new 17.53 6.261 131 46.787"
   xml:space="preserve"
   sodipodi:docname="logo_simple.svg"
   inkscape:version="0.92.2 (5c3e80d, 2017-08-06)"><metadata
     id="metadata25"><rdf:RDF><cc:Work
         rdf:about=""><dc:format>image/svg+xml</dc:format><dc:type
           rdf:resource="http://purl.org/dc/dcmitype/StillImage" /><dc:title></dc:title></cc:Work></rdf:RDF></metadata><defs
     id="defs23"><clipPath
       id="clipPath18"
       clipPathUnits="userSpaceOnUse"><path
         id="path16-7"
         d="M 0,545 H 773 V 0 H 0 Z"
         inkscape:connector-curvature="0" /></clipPath><clipPath
       clipPathUnits="userSpaceOnUse"
       id="clipPath18-8"><path
         d="M 0,545 H 773 V 0 H 0 Z"
         id="path16"
         inkscape:connector-curvature="0" /></clipPath></defs><sodipodi:namedview
     pagecolor="#ffffff"
     bordercolor="#666666"
     borderopacity="1"
     objecttolerance="10"
     gridtolerance="10"
     guidetolerance="10"
     inkscape:pageopacity="0"
     inkscape:pageshadow="2"
     inkscape:window-width="1920"
     inkscape:window-height="1018"
     id="namedview21"
     showgrid="false"
     inkscape:zoom="6.1318573"
     inkscape:cx="35.669425"
     inkscape:cy="0.40847081"
     inkscape:window-x="-8"
     inkscape:window-y="-8"
     inkscape:window-maximized="1"
     inkscape:current-layer="g12"
     inkscape:pagecheckerboard="false"
     borderlayer="false"
     fit-margin-top="0"
     fit-margin-left="0"
     fit-margin-right="0"
     fit-margin-bottom="0" /><g
     id="g18"
     transform="translate(-2.2009704,-0.01264987)" /><g
     inkscape:groupmode="layer"
     id="layer1"
     inkscape:label="sd"
     style="display:inline"
     transform="translate(-2.2009704,-0.01264987)"><g
       id="g10"
       transform="matrix(0.15074708,0,0,-0.15074708,-1.2292966,70.734584)"><g
         id="g12"><g
           transform="translate(249.7075,348.458)"
           id="g20"><path
             id="path22"
             style="fill:#5fb963;fill-opacity:1;fill-rule:evenodd;stroke:none"
             d="M 0,0 C 0.767,2.802 2.838,4.211 5.756,3.514 8.779,2.793 10.169,0.682 9.567,-2.428 9.031,-5.182 6.206,-6.842 3.152,-6.04 0.635,-5.08 -0.833,-3.05 0,0 m 11.341,-78.673 c 3.052,0.85 5.269,-0.372 6.227,-3.322 0.93,-2.856 -0.315,-5.035 -3.042,-6.021 -2.975,-1.072 -5.117,0.226 -6.276,2.662 -1.038,2.979 0.388,5.927 3.091,6.681 m -48.935,40.907 c -2.39,-1.244 -4.882,-0.994 -6.611,1.656 -1.586,2.431 -1.262,4.918 1.197,6.639 2.544,1.78 5.048,1.416 6.974,-1.099 1.701,-2.229 1.067,-5.444 -1.56,-7.196 m -57.242,-104.27 c 10.041,-16.148 20.905,-31.777 31.375,-47.658 1.569,-2.38 3.516,-4.092 6.551,-3.778 3.284,0.334 4.76,2.732 5.703,5.518 3.224,9.52 6.479,19.033 9.537,28.608 0.838,2.62 2.158,4.312 4.695,5.499 6.676,3.126 39.711,19.636 46.296,22.951 4.252,2.145 5.756,5.31 4.201,8.646 -1.519,3.266 -5.649,4.285 -9.696,2.224 -3.664,-1.868 -33.711,-17.063 -37.323,-19.038 -0.317,0.368 -0.638,0.734 -0.957,1.1 2.977,8.883 5.95,17.76 8.924,26.637 0.229,0.678 0.679,2.031 1.311,3.905 0.649,0.782 1.496,1.32 2.498,1.81 5.778,2.824 11.546,5.679 17.28,8.599 0.454,0.236 0.874,0.492 1.261,0.776 l 0.197,-0.458 c 2.19,0.976 3.74,0.928 5.797,-0.572 5.685,-4.135 11.973,-4.639 18.134,-1.226 7.933,4.391 10.835,12.257 8.165,20.893 -2.112,6.836 -9.645,11.855 -17.148,11.415 -8.299,-0.484 -14.76,-6.203 -16.07,-14.772 -0.376,-2.454 -1.456,-3.523 -3.436,-4.386 -0.787,-0.172 -1.605,-0.447 -2.451,-0.851 -2.488,-1.186 -4.984,-2.39 -8.469,-4.064 8.385,24.989 21.249,63.368 22.781,68.191 0.71,2.227 1.674,3.464 4.205,4.059 8.431,1.989 13.621,8.883 13.443,17.196 -0.16,7.509 -5.762,14.622 -12.746,16.186 -8.824,1.974 -16.429,-1.55 -20.18,-9.807 -2.91,-6.416 -1.904,-12.642 2.67,-17.974 1.657,-1.936 1.831,-3.476 1.035,-5.736 -1.151,-3.247 -6.701,-19.767 -12.807,-38.001 -1.353,2.623 -2.411,4.678 -3.473,6.721 -0.432,0.832 -0.918,1.548 -1.444,2.156 -1.063,1.882 -1.278,3.386 -0.099,5.574 4.109,7.629 2.401,16.082 -3.934,21.467 -5.724,4.872 -14.76,5.402 -20.565,1.218 -7.331,-5.286 -9.752,-13.314 -6.067,-21.599 2.864,-6.436 8.189,-9.82 15.214,-9.939 2.546,-0.045 3.814,-0.938 4.974,-3.038 l 0.432,0.248 c 0.139,-0.46 0.32,-0.92 0.543,-1.378 2.816,-5.783 5.701,-11.535 8.613,-17.274 0.105,-0.208 0.204,-0.415 0.296,-0.62 -5.961,-17.814 -11.356,-33.97 -12.598,-37.681 -1.886,3.653 -16.48,31.67 -17.804,34.21 -2.124,4.081 -5.475,5.523 -8.783,3.799 -3.004,-1.562 -3.97,-5.375 -2.16,-9.089 2.814,-5.787 18.982,-37.005 21.895,-42.741 0.815,-1.608 1.245,-3.074 0.609,-4.942 -4.846,-14.214 -9.585,-28.458 -14.37,-42.69 -0.116,-0.355 -0.381,-0.66 -0.889,-1.5 -4.153,6.195 -8.175,12.125 -12.118,18.104 -7.73,11.729 -16.028,23.095 -21.077,36.417 -12.699,33.531 -3.093,73.588 23.814,97.289 30.738,27.073 61.642,53.953 92.475,80.914 0.596,0.523 1.214,1.019 1.773,1.489 0.844,-0.355 0.943,-1.062 1.074,-1.699 8.597,-41.273 17.783,-82.437 25.599,-123.859 7.565,-40.105 -16.152,-81.282 -54.172,-96.582 -2.239,-0.9 -4.465,-1.836 -6.671,-2.809 -3.504,-1.545 -5.059,-4.987 -3.731,-8.146 1.353,-3.214 4.435,-4.584 8.017,-3.272 24.499,8.971 44.067,24.011 56.867,47.067 12.443,22.409 16.13,46.25 10.889,71.386 C 54.072,-13.835 45.053,29.263 36.011,72.359 34.498,79.584 29.719,81.23 24.201,76.407 -9.668,46.822 -43.712,17.432 -77.306,-12.465 -114.01,-45.121 -121.29,-99.517 -94.836,-142.036"
             inkscape:connector-curvature="0" /></g></g></g></g></svg>