<?xml version="1.0" encoding="utf-8"?>
<!-- Generator: Adobe Illustrator 17.0.0, SVG Export Plug-In . SVG Version: 6.00 Build 0)  -->
<!DOCTYPE svg PUBLIC "-//W3C//DTD SVG 1.1//EN" "http://www.w3.org/Graphics/SVG/1.1/DTD/svg11.dtd">
<svg version="1.1" id="Layer_1" xmlns="http://www.w3.org/2000/svg" xmlns:xlink="http://www.w3.org/1999/xlink" x="0px" y="0px"
	 width="37.459px" height="15.633px" viewBox="0 0 37.459 15.633" enable-background="new 0 0 37.459 15.633" xml:space="preserve">
<g>
	<path fill="#FFFFFF" d="M12.559,10.857c-0.299,0.424-0.545,0.658-0.816,0.658c-0.182,0-0.271-0.076-0.303-0.285
		c0-0.074,0-0.207,0-0.523V5.1h-1.422v5.981c0,0.519,0.066,0.873,0.158,1.1c0.152,0.371,0.455,0.578,0.891,0.578
		c0.498,0,0.955-0.312,1.492-0.928v0.82h1.422V5.1h-1.422V10.857z"/>
	<path fill="#FFFFFF" d="M6.953,5.045c-0.677,0-1.193,0.211-1.57,0.729C5.089,6.154,4.936,6.768,4.936,7.572l-0.002,2.686
		c0,0.803,0.141,1.357,0.43,1.736c0.379,0.514,0.992,0.787,1.589,0.787c0.598,0,1.221-0.273,1.6-0.787
		c0.285-0.379,0.42-0.934,0.42-1.736V7.566c0-0.807-0.164-1.412-0.449-1.793C8.144,5.256,7.551,5.045,6.953,5.045z M6.953,11.527
		c-0.441,0-0.673-0.371-0.597-1.117V7.418C6.279,6.67,6.512,6.32,6.953,6.32c0.442,0,0.674,0.35,0.598,1.098v2.992
		C7.627,11.156,7.394,11.527,6.953,11.527z"/>
	<path fill="#FFFFFF" d="M3.662,2.559L2.619,6.496L1.57,2.559H0c0.318,0.939,1.869,5.98,1.869,5.98v4.111h1.494V8.539l1.871-5.98
		H3.662z"/>
	<path fill="#FFFFFF" d="M34.168,7.199c0-0.691-0.18-0.898-0.627-0.898c-0.453,0-0.645,0.191-0.645,0.889v0.828l1.271-0.002V7.199z"
		/>
	<path fill="#FFFFFF" d="M28.592,6.301c-0.225,0-0.479,0.119-0.703,0.34l-0.002,4.535c0.224,0.227,0.481,0.34,0.705,0.34
		c0.389,0,0.564-0.285,0.564-1.033V7.268C29.157,6.519,28.981,6.301,28.592,6.301z"/>
	<path fill="#FFFFFF" d="M37.236,3.373c0,0-0.218-1.531-0.888-2.207c-0.85-0.885-1.801-0.889-2.237-0.939
		C30.989,0,26.301,0,26.301,0h-0.01c0,0-4.688,0-7.811,0.227c-0.436,0.051-1.389,0.055-2.236,0.939
		c-0.67,0.676-0.889,2.207-0.889,2.207s-0.223,1.799-0.223,3.598v1.686c0,1.799,0.223,3.598,0.223,3.598s0.219,1.531,0.889,2.207
		c0.848,0.885,1.963,0.856,2.461,0.947c1.785,0.172,7.592,0.225,7.592,0.225s4.691-0.008,7.814-0.232
		c0.436-0.051,1.387-0.055,2.237-0.94c0.67-0.676,0.888-2.207,0.888-2.207s0.223-1.799,0.223-3.598V6.971
		C37.459,5.172,37.236,3.373,37.236,3.373z M20.037,12.65h-1.496V4.053h-1.57v-1.42h4.711v1.42h-1.645V12.65z M25.42,12.65H24v-0.82
		c-0.539,0.615-0.996,0.928-1.492,0.928c-0.438,0-0.741-0.207-0.893-0.578c-0.092-0.227-0.158-0.58-0.158-1.1V5.174h1.422v5.533
		c0,0.316,0,0.449,0,0.523c0.031,0.209,0.121,0.285,0.301,0.285c0.271,0,0.519-0.234,0.82-0.658V5.174h1.42V12.65z M30.579,10.41
		c0,0.689-0.059,1.176-0.148,1.494c-0.18,0.555-0.574,0.844-1.113,0.844c-0.482,0-0.975-0.289-1.426-0.85l-0.001,0.752h-1.348V2.633
		h1.348L27.887,5.9c0.436-0.539,0.931-0.846,1.43-0.846c0.539,0,0.9,0.312,1.08,0.871c0.089,0.301,0.182,0.783,0.182,1.492V10.41z
		 M33.553,11.516c0.334,0,0.527-0.18,0.605-0.541c0.012-0.074,0.01-0.396,0.01-0.939h1.42v0.211c0,0.436-0.037,0.744-0.049,0.881
		c-0.047,0.301-0.152,0.57-0.316,0.811c-0.374,0.543-0.93,0.811-1.637,0.811c-0.707,0-1.248-0.256-1.637-0.766
		c-0.289-0.375-0.473-0.93-0.473-1.725V7.643c0-0.801,0.166-1.416,0.455-1.795c0.391-0.51,0.929-0.781,1.621-0.781
		c0.68,0,1.217,0.271,1.6,0.781c0.281,0.379,0.438,0.961,0.438,1.76v1.529h-2.693v1.344C32.891,11.17,33.088,11.516,33.553,11.516z"
		/>
</g>
</svg>
